<?xml version="1.0" encoding="utf-8"?>
<!-- Generator: Adobe Illustrator 26.4.0, SVG Export Plug-In . SVG Version: 6.00 Build 0)  -->
<svg version="1.1" id="Illustration" xmlns="http://www.w3.org/2000/svg" xmlns:xlink="http://www.w3.org/1999/xlink" x="0px"
	 y="0px" viewBox="0 0 3939.6 2866.1" style="enable-background:new 0 0 3939.6 2866.1;" xml:space="preserve">
<style type="text/css">
	.st0{fill:#B6E6F7;}
	.st1{fill:#FFFFFF;}
	.st2{clip-path:url(#SVGID_00000085239234536142533700000006747950264164213427_);}
	.st3{clip-path:url(#SVGID_00000072279488735544718130000011131433853929621141_);}
	.st4{fill:#D4F1F9;}
	.st5{fill:url(#SVGID_00000070085684516577795190000010731395923677234878_);}
	.st6{fill:url(#SVGID_00000134959027008272787480000012951426673444917407_);}
	.st7{fill:url(#SVGID_00000026873647547655257610000012638804534264385964_);}
	.st8{fill:url(#SVGID_00000056414841966990004530000012041010140319685003_);}
	.st9{fill:url(#SVGID_00000152222455790815161130000012227814932445682054_);}
	.st10{opacity:0.48;fill:#FFFFFF;}
	.st11{fill:url(#SVGID_00000075851907388635220560000009101596471137062789_);}
	.st12{opacity:0.3;fill:url(#SVGID_00000035495228674938341320000003051147308506385282_);}
	.st13{opacity:0.75;}
	.st14{fill:url(#SVGID_00000083791127293793040960000003992932220903450544_);}
	.st15{opacity:0.74;fill:#FFFFFF;}
	.st16{fill:url(#SVGID_00000089556666276754621050000018109679677523425667_);}
	.st17{opacity:0.5;}
	.st18{fill:url(#SVGID_00000135649596638172673260000004754081327074560659_);}
	.st19{fill:url(#SVGID_00000121990637003550687370000009968744320873953940_);}
	.st20{fill:url(#SVGID_00000121979708358541188630000003034845461157165497_);}
	.st21{fill:#26264F;}
	.st22{fill:url(#SVGID_00000168084188011686302680000007769892438057217210_);}
	.st23{fill:url(#SVGID_00000039837837086846466430000008133595458986513541_);}
	.st24{fill:url(#SVGID_00000103261023161762650420000009985743145238954414_);}
	.st25{opacity:0.25;fill:url(#SVGID_00000026870171837890819230000016190281314311391678_);}
	.st26{fill:#444B8C;}
	.st27{fill:#306CB3;}
	.st28{fill:url(#SVGID_00000076561878612672467990000015502835215407945142_);}
	.st29{fill:url(#SVGID_00000089532423538577215700000017938631545062402700_);}
	.st30{fill:url(#SVGID_00000106833476908729160840000017849852573811230096_);}
	.st31{fill:#142750;}
	.st32{opacity:0.25;fill:url(#SVGID_00000068670744167904300250000008434065375082197678_);}
	.st33{fill:url(#SVGID_00000105415029211509604690000009949824499067071400_);}
	.st34{fill:url(#SVGID_00000062874539247835850250000002001319661122322583_);}
	.st35{opacity:0.3;}
	.st36{fill:url(#SVGID_00000120551263285942178130000003832277623316526763_);}
	.st37{fill:url(#SVGID_00000021097797923141995470000002190105196875231421_);}
	.st38{fill:url(#SVGID_00000170961302645300170100000016343045399882923395_);}
	.st39{fill:url(#SVGID_00000117650293121470283590000016114183302096740501_);}
	.st40{fill:url(#SVGID_00000121987621907176192170000009808004884595453321_);}
	.st41{fill:url(#SVGID_00000126287749423674919250000014320113540937959609_);}
	.st42{fill:url(#SVGID_00000031200609155869240440000007275730333057616512_);}
</style>
<g>
	<path class="st0" d="M2674.9,159c-294.6-42.8-601-63.4-900.5-50.3c-265.5,11.6-566.4,43.3-780,156.6
		c-101.8,54-223.2,151.1-256.5,236.8c0,0-175.3,450.9-525.8,547.5c-350.6,96.6-594,1745.6,2064.4,1584.6
		c0,0,1561.4-42.2,1655.5-1257.7c22.7-293.6,10-616.4-262.1-861.9c-208.5-188.1-500.6-271.8-836.3-330.3
		C2781.2,175.2,2728.3,166.7,2674.9,159z"/>
	<g>
		<path class="st1" d="M2421.3,1160l12.1,62.2c-27.1,10.7-53,23.6-77.3,38.6l-41.5-47.7c-11.3-13-31.1-14.2-44.1-2.7l-81.7,72
			c-13.1,11.5-14.5,31.4-3.2,44.5l41.9,48.3c-18,22.6-34.1,46.8-48,72.2l-60.6-20.6c-16.3-5.6-34.2,3.4-39.9,19.9l-35.8,103.8
			c-5.7,16.6,2.9,34.7,19.3,40.3l60.8,20.8c-4.5,28.4-6.5,57.5-6.1,86.9l-63.7,13c-17.1,3.5-28.3,20.3-25.1,37.6l20.2,108.5
			c3.2,17.4,19.8,28.6,36.9,25.2l63.8-13c10.3,27.6,22.8,54,37.4,78.8l-49.1,43.6c-13.2,11.8-14.7,32.2-3.3,45.5l71.6,83.9
			c11.5,13.4,31.5,14.8,44.8,2.9l49.1-43.8c22.5,18.5,46.6,35,71.9,49.2l-21.1,62.8c-5.7,17,3.1,35.5,19.7,41.2l104.1,36.1
			c16.7,5.8,34.8-3.4,40.5-20.4l20.8-62.3c28.5,4.5,57.7,6.4,87.3,5.8l12.6,64.5c3.4,17.7,20.3,29.1,37.5,25.6l108.1-22
			c17.3-3.5,28.5-20.7,25-38.3l-12.7-63.9c27.7-10.9,54.1-24,78.9-39.4l42.1,48.6c11.7,13.5,31.9,14.8,45.1,3l82.4-74.1
			c13.2-11.8,14.3-32.3,2.6-45.8l-42-48.2c18.3-23.3,34.5-48.2,48.5-74.4l59.8,20.4c16.7,5.7,34.7-3.4,40.2-20.3l34.3-105.5
			c5.5-16.8-3.6-35.1-20.3-40.7l-59.2-20.1c4.2-29.1,5.8-58.8,4.9-88.8l61.1-12.5c17.1-3.5,28.1-20.4,24.5-37.7l-22.4-108
			c-3.6-17.2-20.3-28.4-37.4-24.9l-60.9,12.4c-10.9-27.8-24-54.2-39.2-79l46.2-41.2c13-11.6,14.1-31.6,2.6-44.7l-72.3-81.8
			c-11.5-13.1-31.4-14.3-44.4-2.7l-46.5,41.4c-22.8-18.1-47.1-34.3-72.6-48.1l19.8-59.2c5.5-16.5-3.4-34.3-19.8-39.8l-102.6-34.4
			c-16.4-5.5-34.2,3.4-39.7,19.8l-20,59.4c-28.2-4.2-57.1-5.8-86.3-4.9l-12.2-61.7c-3.4-17-19.8-27.9-36.8-24.5l-106,21.6
			C2429,1126.5,2418,1143,2421.3,1160z M2300.4,1749.9c-33.3-174.5,79.1-343.5,251-378.6c171.9-35.1,339.6,76.9,374.9,251
			c35.4,175.1-76.5,346.6-250.3,382.1C2502.2,2039.8,2333.9,1925.5,2300.4,1749.9z"/>
		<path class="st1" d="M2971.8,881.6l3.6,18.3c-8,3.2-15.6,6.9-22.7,11.4l-12.2-14c-3.3-3.8-9.1-4.2-13-0.8l-24,21.2
			c-3.8,3.4-4.3,9.2-0.9,13.1l12.3,14.2c-5.3,6.7-10,13.8-14.1,21.2l-17.8-6.1c-4.8-1.6-10.1,1-11.7,5.9l-10.5,30.5
			c-1.7,4.9,0.9,10.2,5.7,11.8l17.9,6.1c-1.3,8.4-1.9,16.9-1.8,25.6l-18.7,3.8c-5,1-8.3,6-7.4,11.1l5.9,31.9c1,5.1,5.8,8.4,10.9,7.4
			l18.8-3.8c3,8.1,6.7,15.9,11,23.2l-14.4,12.8c-3.9,3.5-4.3,9.5-1,13.4l21.1,24.7c3.4,4,9.3,4.3,13.2,0.9l14.4-12.9
			c6.6,5.4,13.7,10.3,21.1,14.5l-6.2,18.5c-1.7,5,0.9,10.4,5.8,12.1l30.6,10.6c4.9,1.7,10.2-1,11.9-6l6.1-18.3
			c8.4,1.3,17,1.9,25.7,1.7l3.7,19c1,5.2,6,8.6,11,7.5l31.8-6.5c5.1-1,8.4-6.1,7.3-11.3l-3.7-18.8c8.1-3.2,15.9-7.1,23.2-11.6
			l12.4,14.3c3.4,4,9.4,4.4,13.3,0.9l24.2-21.8c3.9-3.5,4.2-9.5,0.8-13.5l-12.3-14.2c5.4-6.9,10.2-14.2,14.3-21.9l17.6,6
			c4.9,1.7,10.2-1,11.8-6l10.1-31c1.6-5-1.1-10.3-6-12l-17.4-5.9c1.2-8.6,1.7-17.3,1.4-26.1l18-3.7c5-1,8.3-6,7.2-11.1l-6.6-31.8
			c-1-5.1-6-8.3-11-7.3l-17.9,3.7c-3.2-8.2-7.1-16-11.5-23.2l13.6-12.1c3.8-3.4,4.2-9.3,0.8-13.1l-21.3-24.1
			c-3.4-3.8-9.2-4.2-13.1-0.8l-13.7,12.2c-6.7-5.3-13.8-10.1-21.4-14.2l5.8-17.4c1.6-4.8-1-10.1-5.8-11.7l-30.2-10.1
			c-4.8-1.6-10,1-11.7,5.8l-5.9,17.5c-8.3-1.2-16.8-1.7-25.4-1.4l-3.6-18.1c-1-5-5.8-8.2-10.8-7.2l-31.2,6.4
			C2974.1,871.7,2970.9,876.6,2971.8,881.6z M2936.3,1055.1c-9.8-51.3,23.3-101,73.8-111.3c50.5-10.3,99.9,22.6,110.2,73.8
			c10.4,51.5-22.5,101.9-73.6,112.4C2995.6,1140.3,2946.1,1106.7,2936.3,1055.1z"/>
	</g>
	<g>
		<g>
			<g>
				<defs>
					<path id="SVGID_1_" d="M1612.3,1782.8c36.6-111.5,73.9-281.8,30.2-470.9c-50.1-217.1-161-260.5-260.6-492.6
						c-142.2-331.3,18.7-571.2-128.5-672.5c-71.8-49.4-184.7-49.4-254.3,0.2c-198.6,141.4-144.1,757.4,170.9,997.8
						c142.5,108.7,266.8,95.8,373.7,236.5C1638.3,1505.6,1630.9,1669.6,1612.3,1782.8z"/>
				</defs>
				
					<linearGradient id="SVGID_00000045585835309289321470000008627891717462620594_" gradientUnits="userSpaceOnUse" x1="1001.4838" y1="123.4756" x2="1476.2128" y2="1633.9758">
					<stop  offset="0" style="stop-color:#21B2E7"/>
					<stop  offset="1" style="stop-color:#B6E6F7"/>
				</linearGradient>
				
					<use xlink:href="#SVGID_1_"  style="overflow:visible;fill:url(#SVGID_00000045585835309289321470000008627891717462620594_);"/>
				<clipPath id="SVGID_00000030485029864564627980000008295492509783940263_">
					<use xlink:href="#SVGID_1_"  style="overflow:visible;"/>
				</clipPath>
				<g style="clip-path:url(#SVGID_00000030485029864564627980000008295492509783940263_);">
					<path class="st1" d="M1634.7,1502.1c-11.9-46.9-28-93-47.7-137c-45.3-101.1-95.3-156.8-158.6-227.2
						c-41.3-46-88.2-98.1-142.3-172.8c-101.3-139.8-132.7-188.9-160.8-268c-55.7-156.6-47.2-297-37.1-366.8
						c14.3-99,47.5-193.1,98.7-279.9l3.1,1.8c-51,86.4-84,180.1-98.2,278.6c-10,69.4-18.5,209.2,36.9,365.1
						c28,78.7,59.3,127.7,160.4,267.1c54,74.5,100.8,126.6,142,172.5c63.5,70.7,113.7,126.5,159.2,228.1
						c19.8,44.2,35.9,90.5,47.9,137.6L1634.7,1502.1z"/>
					<path class="st1" d="M1098,586.5l-2.6-1.4c-0.6-0.3-59.4-32.6-111.6-98.4c-48.2-60.7-100.7-163.2-76.4-306.7l3.5,0.6
						c-24,142.1,27.9,243.7,75.7,303.8c45.6,57.4,96.1,89.1,108,96c3.3-114.6,76.7-188.8,138.1-231c66.9-46.1,134.3-64.9,134.9-65.1
						l1,3.4c-0.7,0.2-67.5,18.9-133.9,64.7c-61.2,42.1-134.5,116.4-136.5,231.1L1098,586.5z"/>
					<path class="st1" d="M1114.8,954.9c-59.5,0-129.4-14.6-193.9-64.8l2.2-2.8c144.8,112.7,317.1,44,334.2,36.7
						c-29.3-113.1-3.4-196.6,23.6-246.7c29.3-54.6,66.3-82.7,66.7-83l2.1,2.9c-0.4,0.3-36.8,28-65.7,82
						c-26.7,49.8-52.3,132.8-22.8,245.5l0.4,1.5l-1.4,0.6C1259,927.1,1196.8,954.9,1114.8,954.9z"/>
					<path class="st1" d="M1247.5,1170.7c-44.6,0-98-8.1-160.1-30.8l1.2-3.4c203.5,74.4,312.2-8.9,323.4-18.2
						c-49.5-115.9,20.2-303.3,20.9-305.1l3.3,1.3c-0.7,1.9-70.4,189.2-20.5,303.7l0.5,1.2l-0.9,0.9
						C1414.5,1120.9,1358.1,1170.7,1247.5,1170.7z"/>
				</g>
			</g>
		</g>
		<g>
			<g>
				<defs>
					<path id="SVGID_00000106868674881410514430000009477869545464227772_" d="M1676,1648.2c11.6-70.2,18.3-179.9-38.9-278
						c-99.7-171.1-281.5-114.4-455.5-297.7c-140.3-147.9-96.1-262.8-251.6-361c-26-16.4-163.6-107-265.8-52.4
						c-57.6,30.7-78.5,93.8-82.4,105.6c-59.2,178.9,123,459.1,360.6,587.2c136.5,73.6,180.5,49.6,420.7,135.4
						C1504.2,1537.8,1610.2,1602.8,1676,1648.2z"/>
				</defs>
				<use xlink:href="#SVGID_00000106868674881410514430000009477869545464227772_"  style="overflow:visible;fill:#C1DBF4;"/>
				<clipPath id="SVGID_00000034086568068433131100000013490638354545738396_">
					<use xlink:href="#SVGID_00000106868674881410514430000009477869545464227772_"  style="overflow:visible;"/>
				</clipPath>
				<g style="clip-path:url(#SVGID_00000034086568068433131100000013490638354545738396_);">
					<path class="st4" d="M1696,1732.8c-34.8-167-100.5-279-195.5-333.2c-46.3-26.4-83.4-30.6-122.6-35
						c-42.8-4.8-87.1-9.9-145.7-45.3c-57-34.5-77.4-67.6-103.2-109.5c-22.9-37.2-51.5-83.6-115.5-145.3
						c-56.1-54.1-97-79.4-133.1-101.8c-39.5-24.5-70.7-43.8-106.9-91.2c-59-77.3-89.8-176.4-91.6-294.4l3.6-0.1
						c1.8,117.3,32.4,215.6,90.9,292.3c35.8,46.9,66.8,66.1,105.9,90.4c36.2,22.4,77.3,47.9,133.7,102.2c64.3,62,93,108.6,116,146
						c25.6,41.5,45.7,74.3,102,108.3c57.9,35,101.8,40,144.3,44.8c39.6,4.5,77,8.7,123.9,35.5c95.9,54.6,162.3,167.5,197.3,335.5
						L1696,1732.8z"/>
					<path class="st4" d="M882.5,973.1c-122,0-213.2-46.8-268.8-86.9c-62.7-45.2-95.3-92-95.6-92.5l2.9-2
						c0.3,0.5,32.6,46.9,94.9,91.7c57.1,41.1,151.6,89.2,278.8,86c-7.6-24.6-71.3-239.9,11.1-332.4l2.7,2.4
						c-85.6,96.1-10.4,328.8-9.6,331.1l0.7,2.3l-2.4,0.1C892.3,973,887.4,973.1,882.5,973.1z"/>
					<path class="st4" d="M873.2,1171.6c-78.1,0-177.6-16.1-277.5-76l1.8-3.1c124.3,74.5,248,80.7,330,72.8
						c81.3-7.8,138.5-30.7,148.1-34.7c-33.1-122.1-3.6-294.2-3.3-295.9l3.5,0.6c-0.3,1.7-29.9,174.5,3.6,295.8l0.4,1.5l-1.4,0.6
						c-0.6,0.3-61.2,27-150.6,35.6C911.2,1170.6,892.8,1171.6,873.2,1171.6z"/>
					<path class="st4" d="M979,1455c-6,0-12-0.1-18-0.2l0.1-3.6c124.8,2.7,220.9-23.2,279.5-45.5c56-21.3,89.4-43.3,96.8-48.3
						c-91.6-113.9-55.7-299.7-55.4-301.6l3.5,0.7c-0.4,1.9-36.2,187.7,55.8,300.1l1.2,1.5l-1.5,1.1
						C1339.7,1360.2,1208.1,1455,979,1455z"/>
				</g>
			</g>
		</g>
		<g>
			
				<linearGradient id="SVGID_00000125602150806175747280000016845939007514964119_" gradientUnits="userSpaceOnUse" x1="-2475.4255" y1="1246.9977" x2="-3502.7737" y2="2090.8921" gradientTransform="matrix(-0.9456 0.3251 0.3251 0.9456 -1936.4666 948.3483)">
				<stop  offset="0" style="stop-color:#21B2E7"/>
				<stop  offset="1" style="stop-color:#B6E6F7"/>
			</linearGradient>
			<path style="fill:url(#SVGID_00000125602150806175747280000016845939007514964119_);" d="M1678.4,1588.6
				c-39.1-28.1-103-68.7-189-99.2c-152.9-54.2-223-22.2-287.8-86.9c-67-66.9-23.6-132.8-103.8-207.6c-6.7-6.3-92.9-84.5-170.8-55.3
				c-54.5,20.4-75.8,82.3-85.7,111.4c-38.7,112.8-16.2,284.6,104.1,369.4c114.1,80.4,258.5,42.1,304.4,29.6
				c80.4-21.9,99.5-53.3,181.3-73.1C1530.6,1552.7,1620,1570.6,1678.4,1588.6z"/>
		</g>
	</g>
	<g>
		
			<linearGradient id="SVGID_00000178162833916121082600000010144293002201754508_" gradientUnits="userSpaceOnUse" x1="1853.7581" y1="2674.0515" x2="1655.6274" y2="2757.2664">
			<stop  offset="0" style="stop-color:#306CB3"/>
			<stop  offset="0.9964" style="stop-color:#142750"/>
		</linearGradient>
		<path style="fill:url(#SVGID_00000178162833916121082600000010144293002201754508_);" d="M3482.8,2565.4l-2820.2-24.8v73.3
			c0,19.9,12.3,36.8,29,39.9l797.5,144.4c9.5,1.7,19.1,2.2,28.6,1.4l1934.5-164.7c17.3-1.5,30.6-18.4,30.6-38.9V2565.4z"/>
		<g>
			
				<linearGradient id="SVGID_00000111893596295650597020000005405506323623165113_" gradientUnits="userSpaceOnUse" x1="1531.3875" y1="1793.2432" x2="1325.9587" y2="1879.5232">
				<stop  offset="0" style="stop-color:#306CB3"/>
				<stop  offset="0.9964" style="stop-color:#142750"/>
			</linearGradient>
			<path style="fill:url(#SVGID_00000111893596295650597020000005405506323623165113_);" d="M2459.3,2446.5L691.7,2580.7
				c-31.6,2.4-57.3-23.1-57.3-57V1166.4c0-33.9,25.7-61.3,57.3-61.3h1767.6c26.1,0,47.1,24.8,47.1,55.5v1227
				C2506.5,2418.1,2485.4,2444.6,2459.3,2446.5z"/>
			
				<linearGradient id="SVGID_00000127731866775984007570000001576949511584516775_" gradientUnits="userSpaceOnUse" x1="662.5739" y1="1842.9796" x2="2534.6462" y2="1842.9796">
				<stop  offset="0" style="stop-color:#306CB3"/>
				<stop  offset="0.9964" style="stop-color:#142750"/>
			</linearGradient>
			<path style="fill:url(#SVGID_00000127731866775984007570000001576949511584516775_);" d="M2487.5,2446.5L719.9,2580.7
				c-31.6,2.4-57.3-23.1-57.3-57V1166.4c0-33.9,25.7-61.3,57.3-61.3h1767.6c26.1,0,47.1,24.8,47.1,55.5v1227
				C2534.6,2418.1,2513.6,2444.6,2487.5,2446.5z"/>
			
				<linearGradient id="SVGID_00000173857142732027846430000004646515371444563586_" gradientUnits="userSpaceOnUse" x1="782.8245" y1="2446.5022" x2="2683.1978" y2="899.0021">
				<stop  offset="0" style="stop-color:#21B2E7"/>
				<stop  offset="0.9964" style="stop-color:#306CB3"/>
			</linearGradient>
			<path style="fill:url(#SVGID_00000173857142732027846430000004646515371444563586_);" d="M2432.5,2360L786.1,2476.6
				c-25.7,1.8-46.7-19.1-46.7-46.8V1241.5c0-27.7,20.9-50.2,46.7-50.3l1646.3-7.3c21.5-0.1,38.9,20.2,38.9,45.4v1082.3
				C2471.3,2336.9,2453.9,2358.5,2432.5,2360z"/>
			<path class="st1" d="M1666.1,1142.2c0,12.6-9.1,22.9-20.3,22.9c-11.2,0-20.4-10.2-20.4-22.8c0-12.6,9.1-22.9,20.4-22.9
				C1657,1119.4,1666.1,1129.6,1666.1,1142.2z"/>
			<path class="st10" d="M2061.6,2074.3c-136.3-78.8-243.4,21-346.8-77.4c-62.7-59.7-31.9-104.2-109.1-193.4
				c-85.4-98.8-141.1-65.6-226.9-154.5c-108.6-112.4-54.3-199.9-147.8-280.6c-113.4-97.9-235.8-7.3-343.8-101.2
				c-46.6-40.5-72.1-99.4-85.5-162H696.1c-18.5,0-33.6,16.1-33.6,36V2548c0,19.9,15,34.9,33.6,33.4l1801.5-137.3
				c8.8-0.7,16.7-6.2,21.7-14.3c-131.9-5.2-212.9-52.6-264.7-101.7C2153.3,2232.1,2170.9,2137.4,2061.6,2074.3z"/>
		</g>
		
			<linearGradient id="SVGID_00000078749797511475052300000005174552248903070639_" gradientUnits="userSpaceOnUse" x1="662.5739" y1="2586.5745" x2="3482.7739" y2="2586.5745">
			<stop  offset="0" style="stop-color:#306CB3"/>
			<stop  offset="0.9964" style="stop-color:#142750"/>
		</linearGradient>
		<path style="fill:url(#SVGID_00000078749797511475052300000005174552248903070639_);" d="M2558,2440.4L662.6,2581.7l826.4,149.7
			c9.5,1.7,19.1,2.2,28.6,1.4l1965.2-167.3l-894.7-124C2578.1,2440,2568,2439.7,2558,2440.4z"/>
		
			<linearGradient id="SVGID_00000027569195287091283090000014081278993802189200_" gradientUnits="userSpaceOnUse" x1="939.1419" y1="2563.2549" x2="3005.4849" y2="2563.2549">
			<stop  offset="0" style="stop-color:#306CB3"/>
			<stop  offset="0.9964" style="stop-color:#142750"/>
		</linearGradient>
		<polygon style="opacity:0.3;fill:url(#SVGID_00000027569195287091283090000014081278993802189200_);" points="939.1,2585.2 
			2517.1,2465.9 3005.5,2533.1 1441.1,2660.6 		"/>
		<g class="st13">
			<polygon class="st1" points="1075.4,1284.5 894.1,1285.2 894.1,1226.5 1075.4,1226.5 			"/>
			<polygon class="st1" points="2025.2,1281.2 1190.5,1284.1 1190.5,1226.5 2025.2,1226.5 			"/>
			<polygon class="st1" points="1365.5,1380.9 1190.5,1382.6 1190.5,1324.9 1365.5,1323.9 			"/>
			<polygon class="st1" points="2283.4,1372.2 1476.7,1379.9 1476.7,1323.2 2283.4,1318.4 			"/>
			<polygon class="st1" points="1365.5,1478.3 1190.5,1481 1190.5,1423.4 1365.5,1421.3 			"/>
			<polygon class="st1" points="2283.4,1464.2 1476.7,1476.6 1476.7,1420 2283.4,1410.4 			"/>
			<polygon class="st1" points="1075.4,1581.9 894.1,1585.8 894.1,1527.1 1075.4,1523.9 			"/>
			<polygon class="st1" points="2025.2,1561.6 1190.5,1579.5 1190.5,1521.8 2025.2,1506.9 			"/>
			<polygon class="st1" points="1365.5,1673.1 1190.5,1677.9 1190.5,1620.3 1365.5,1616.1 			"/>
			<polygon class="st1" points="2283.4,1648 1476.7,1670.1 1476.7,1613.5 2283.4,1594.2 			"/>
			<polygon class="st1" points="1365.5,1770.5 1190.5,1776.4 1190.5,1718.7 1365.5,1713.5 			"/>
			<polygon class="st1" points="2283.4,1740 1476.7,1766.8 1476.7,1710.2 2283.4,1686.1 			"/>
			<polygon class="st1" points="1365.5,1867.9 1190.5,1874.8 1190.5,1817.2 1365.5,1810.9 			"/>
			<polygon class="st1" points="2283.4,1831.9 1476.7,1863.6 1476.7,1806.9 2283.4,1778.1 			"/>
			<polygon class="st1" points="1648.3,1952.5 1479.3,1960.2 1479.3,1903.6 1648.3,1896.5 			"/>
			<polygon class="st1" points="2406.6,1918.2 1755.7,1947.7 1755.7,1892 2406.6,1864.8 			"/>
			<polygon class="st1" points="1075.4,2077.6 894.1,2086.9 894.1,2028.2 1075.4,2019.6 			"/>
			<polygon class="st1" points="2025.2,2029 1190.5,2071.7 1190.5,2014.1 2025.2,1974.2 			"/>
			<polygon class="st1" points="1365.5,2160.1 1190.5,2170.1 1190.5,2112.5 1365.5,2103.1 			"/>
			<polygon class="st1" points="2283.4,2107.7 1476.7,2153.8 1476.7,2097.1 2283.4,2053.8 			"/>
			<polygon class="st1" points="1365.5,2257.5 1190.5,2268.6 1190.5,2211 1365.5,2200.5 			"/>
			<polygon class="st1" points="2283.4,2199.6 1476.7,2250.5 1476.7,2193.9 2283.4,2145.8 			"/>
			<polygon class="st1" points="1075.4,2375 894.1,2387.5 894.1,2328.8 1075.4,2317 			"/>
			<polygon class="st1" points="2025.2,2309.4 1190.5,2367 1190.5,2309.4 2025.2,2254.6 			"/>
		</g>
	</g>
	<g>
		
			<linearGradient id="SVGID_00000049218665214693947200000002505534142965954482_" gradientUnits="userSpaceOnUse" x1="2455.9043" y1="42.3725" x2="783.6226" y2="3386.9285">
			<stop  offset="3.597120e-03" style="stop-color:#F4D7F5"/>
			<stop  offset="1" style="stop-color:#21B2E7"/>
		</linearGradient>
		<path style="fill:url(#SVGID_00000049218665214693947200000002505534142965954482_);" d="M2658.2,434.5l-1543-50.7
			c-51.7-1.7-93.9,39.1-93.9,91.2v1503.9c0,52.1,42.1,92.5,93.9,90.3l1543-65.9c44.6-1.9,80.7-42.4,80.7-90.5V524.2
			C2738.8,476.1,2702.8,436,2658.2,434.5z"/>
		<path class="st15" d="M1115.1,2039.2c-35.2,1.5-63.8-26-63.8-61.4V475.8c0-35.4,28.6-63.2,63.8-62.1l1543,48.6
			c30.4,1,55,28.3,55,61v1390.3c0,32.8-24.6,60.3-55,61.6L1115.1,2039.2z"/>
		
			<linearGradient id="SVGID_00000150104239406454151400000012205661290152466339_" gradientUnits="userSpaceOnUse" x1="1732.6383" y1="-62.0779" x2="2023.2031" y2="1100.1848">
			<stop  offset="3.597120e-03" style="stop-color:#B6E6F7"/>
			<stop  offset="1" style="stop-color:#21B2E7"/>
		</linearGradient>
		<path style="fill:url(#SVGID_00000150104239406454151400000012205661290152466339_);" d="M2658.2,434.5l-1543-50.7
			c-51.7-1.7-93.9,39.1-93.9,91.2v67.6l1717.6,44v-62.4C2738.8,476.1,2702.8,436,2658.2,434.5z"/>
		<path class="st1" d="M1188.1,470.7c0,16.9-13.6,30.2-30.4,29.8c-16.8-0.5-30.5-14.6-30.5-31.5c0-17,13.7-30.3,30.5-29.8
			C1174.5,439.7,1188.1,453.8,1188.1,470.7z"/>
		<path class="st1" d="M1294.4,473.8c0,16.8-13.5,30.1-30.1,29.6c-16.7-0.5-30.2-14.5-30.2-31.4c0-16.9,13.5-30.1,30.2-29.6
			C1280.9,442.9,1294.4,457,1294.4,473.8z"/>
		<path class="st1" d="M1399.6,476.8c0,16.8-13.4,30-29.9,29.5c-16.5-0.5-29.9-14.4-29.9-31.2c0-16.8,13.4-30,29.9-29.5
			C1386.2,446.1,1399.6,460.1,1399.6,476.8z"/>
		<g>
			<polygon class="st1" points="1945.7,730.8 1130.7,716.1 1130.7,764 1945.7,776.9 			"/>
			<polygon class="st1" points="2558.4,741.8 2558.4,786.6 2644.7,788 2644.7,743.3 			"/>
		</g>
		<g>
			<polygon class="st1" points="1303,881.3 1130.7,879.4 1130.7,830 1303,832.2 			"/>
			<polygon class="st1" points="2223.5,891.1 1413,882.4 1413,833.6 2223.5,844.1 			"/>
			<polygon class="st1" points="1581,966.9 1413,965.8 1413,917 1581,918.5 			"/>
			<polygon class="st1" points="2478.9,973.1 1688.2,967.7 1688.2,919.5 2478.9,926.7 			"/>
			<polygon class="st1" points="1581,1049.6 1413,1049.1 1413,1000.3 1581,1001.2 			"/>
			<polygon class="st1" points="2478.9,1052.4 1688.2,1050 1688.2,1001.8 2478.9,1006 			"/>
			<polygon class="st1" points="1303,1132.5 1130.7,1132.7 1130.7,1083.2 1303,1083.5 			"/>
			<polygon class="st1" points="2223.5,1131.9 1413,1132.5 1413,1083.7 2223.5,1084.9 			"/>
			<polygon class="st1" points="1581,1215 1413,1215.8 1413,1167 1581,1166.6 			"/>
			<polygon class="st1" points="2478.9,1211 1688.2,1214.6 1688.2,1166.4 2478.9,1164.6 			"/>
			<polygon class="st1" points="1581,1297.7 1413,1299.1 1413,1250.4 1581,1249.3 			"/>
			<polygon class="st1" points="2478.9,1290.3 1688.2,1296.9 1688.2,1248.7 2478.9,1243.9 			"/>
			<polygon class="st1" points="1581,1380.5 1413,1382.5 1413,1333.7 1581,1332 			"/>
			<polygon class="st1" points="2478.9,1369.6 1688.2,1379.2 1688.2,1331 2478.9,1323.2 			"/>
			<polygon class="st1" points="1854.6,1458.8 1690.8,1461.4 1690.8,1413.2 1854.6,1411 			"/>
			<polygon class="st1" points="2601.6,1447 1959.2,1457.2 1959.2,1409.6 2601.6,1400.8 			"/>
			<polygon class="st1" points="1303,1551.3 1130.7,1554.7 1130.7,1505.3 1303,1502.3 			"/>
			<polygon class="st1" points="2223.5,1533.2 1413,1549.2 1413,1500.4 2223.5,1486.2 			"/>
			<polygon class="st1" points="1581,1628.6 1413,1632.5 1413,1583.7 1581,1580.2 			"/>
			<polygon class="st1" points="2478.9,1607.5 1688.2,1626.1 1688.2,1577.9 2478.9,1561.1 			"/>
			<polygon class="st1" points="1581,1711.3 1413,1715.9 1413,1667.1 1581,1662.9 			"/>
			<polygon class="st1" points="2478.9,1686.8 1688.2,1708.4 1688.2,1660.2 2478.9,1640.4 			"/>
			<polygon class="st1" points="1303,1802.6 1130.7,1807.9 1130.7,1758.5 1303,1753.6 			"/>
			<polygon class="st1" points="2223.5,1774.1 1413,1799.2 1413,1750.4 2223.5,1727.1 			"/>
			<polygon class="st1" points="1581,1876.7 1413,1882.5 1413,1833.7 1581,1828.3 			"/>
			<polygon class="st1" points="2478.9,1845.4 1688.2,1873 1688.2,1824.8 2478.9,1799 			"/>
		</g>
		<g class="st17">
			<path class="st1" d="M2058.4,1012.7c-180.2-262.2-492.2-178.8-689.5-468.6c-35.6-52.3-59.7-105.4-76.3-154.5l-177.4-5.8
				c-51.7-1.7-93.9,39.1-93.9,91.2v1503.9c0,52.1,42.1,92.5,93.9,90.3l1486.5-63.5c-34.1-49.1-330.7-231-407.3-510.3
				C2124.3,1239.9,2167.1,1170.9,2058.4,1012.7z"/>
		</g>
	</g>
	<g>
		<g>
			
				<linearGradient id="SVGID_00000098905504504339088950000009587063806455672972_" gradientUnits="userSpaceOnUse" x1="1979.9875" y1="1063.483" x2="1937.7054" y2="1131.8806">
				<stop  offset="0" style="stop-color:#FFC444"/>
				<stop  offset="0.9964" style="stop-color:#F36F56"/>
			</linearGradient>
			<path style="fill:url(#SVGID_00000098905504504339088950000009587063806455672972_);" d="M1977.8,1133.3
				c4.3-6.7,12.1-20.8,12.6-39.8c1-36.9-26.4-65.8-30.1-64.1c-2,0.9,0.5,11.7,1.9,16.5c2.9,10,6.1,11,5.8,15.5
				c-0.5,9.4-14.2,9.8-21.4,22.3c-5.2,9-5.6,21.9,0,32.1C1956,1132.7,1976.9,1133.3,1977.8,1133.3z"/>
			
				<linearGradient id="SVGID_00000130636612246195056920000004076389407666497214_" gradientUnits="userSpaceOnUse" x1="2582.2454" y1="1873.0182" x2="2599.3196" y2="1908.1283">
				<stop  offset="0" style="stop-color:#FFC444"/>
				<stop  offset="0.9964" style="stop-color:#F36F56"/>
			</linearGradient>
			<polygon style="fill:url(#SVGID_00000130636612246195056920000004076389407666497214_);" points="2563.1,1935.7 2552.5,1899.5 
				2596.5,1866.9 2623.9,1856.6 2607.7,1907.3 			"/>
			
				<linearGradient id="SVGID_00000072239186287964714750000012874781554299751814_" gradientUnits="userSpaceOnUse" x1="1289.2135" y1="2767.116" x2="1289.2135" y2="2656.9692" gradientTransform="matrix(1 0 0 1 1249.563 0)">
				<stop  offset="0" style="stop-color:#FFC444"/>
				<stop  offset="0.9964" style="stop-color:#F36F56"/>
			</linearGradient>
			<path style="fill:url(#SVGID_00000072239186287964714750000012874781554299751814_);" d="M2508.7,2665.6c0,0,24.1,60.5,17.7,87.3
				c25.8-0.5,42.5-3.8,42.5-3.8s-10.4-27.6-12.4-41.3c-2.7-18.5-2.5-48.4-2.5-48.4L2508.7,2665.6z"/>
			<path class="st21" d="M2243.5,2807.1c1.6,1.9,4.3,5.8,4.5,11.1c0.1,2.9-0.5,5.3-1.4,7.4c-4.1,10.8-10.5,12.2-17.5,23.7
				c-4.2,7-3.4,9.1-7.3,12.3c-5.1,4.2-11.3,4.4-16.7,4.5c-9.1,0.1-22.2-0.2-38.6-2.2c8.6-11.1,17.8-22.4,27.6-33.8
				c4.3-5,8.6-9.9,12.8-14.7l25.4-8.6C2236.1,2806.9,2239.8,2807,2243.5,2807.1z"/>
			
				<linearGradient id="SVGID_00000090279953046663087580000010679359706153331634_" gradientUnits="userSpaceOnUse" x1="953.4855" y1="2798.5066" x2="953.4855" y2="2665.7617" gradientTransform="matrix(1 0 0 1 1249.563 0)">
				<stop  offset="0" style="stop-color:#FFC444"/>
				<stop  offset="0.9964" style="stop-color:#F36F56"/>
			</linearGradient>
			<path style="fill:url(#SVGID_00000090279953046663087580000010679359706153331634_);" d="M2222.4,2683.9c0,0-14.5,75.7,4,96.9
				c15.7,21.2-7.6,6.1-7.6,6.1l-27.8,24.3l-16.7,28.9c0,0,15.4-74.1,11.3-103.5c-4.1-29.4-6.2-49.2-6.2-49.2L2222.4,2683.9z"/>
			
				<linearGradient id="SVGID_00000078723225889470694750000008457219436657001380_" gradientUnits="userSpaceOnUse" x1="879.2232" y1="2277.0649" x2="1313.5162" y2="2277.0649" gradientTransform="matrix(1 0 0 1 1249.563 0)">
				<stop  offset="0" style="stop-color:#311944"/>
				<stop  offset="1" style="stop-color:#893976"/>
			</linearGradient>
			<path style="fill:url(#SVGID_00000078723225889470694750000008457219436657001380_);" d="M2167.8,1856c0,0-39,34.9-39,178.4
				s18.5,455.3,18.5,455.3l29.5,223.2c0,0,30.6,1.1,51.1-5.1c18.5-84.1,48.5-226.3,34.2-345.3c-6.2-129.2,51.3-291.2,51.3-291.2
				s49.2,164.1,84.1,246.1c34.9,82,101.2,339,107.4,357.5c40.8,3.7,58.2-7.1,58.2-7.1s-26.2-276.6-50.8-381.2
				c-24.6-104.6-22.6-356.9-63.6-428.6C2356.4,1821.2,2167.8,1856,2167.8,1856z"/>
			
				<linearGradient id="SVGID_00000033344264782185185160000017639059521722048433_" gradientUnits="userSpaceOnUse" x1="865.4208" y1="1953.3234" x2="1178.3048" y2="2478.8477" gradientTransform="matrix(1 0 0 1 1249.563 0)">
				<stop  offset="0" style="stop-color:#142750"/>
				<stop  offset="1" style="stop-color:#306CB3"/>
			</linearGradient>
			<path style="fill:url(#SVGID_00000033344264782185185160000017639059521722048433_);" d="M2167.8,1856c0,0-39,34.9-39,178.4
				s18.5,455.3,18.5,455.3l29.5,223.2c0,0,30.6,1.1,51.1-5.1c18.5-84.1,48.5-226.3,34.2-345.3c-6.2-129.2,51.3-291.2,51.3-291.2
				s49.2,164.1,84.1,246.1c34.9,82,101.2,339,107.4,357.5c40.8,3.7,58.2-7.1,58.2-7.1s-26.2-276.6-50.8-381.2
				c-24.6-104.6-22.6-356.9-63.6-428.6C2356.4,1821.2,2167.8,1856,2167.8,1856z"/>
			
				<linearGradient id="SVGID_00000031902688348171980930000005756790919894237068_" gradientUnits="userSpaceOnUse" x1="988.5949" y1="1879.9885" x2="1301.4789" y2="2405.5129" gradientTransform="matrix(1 0 0 1 1249.563 0)">
				<stop  offset="0" style="stop-color:#311944"/>
				<stop  offset="1" style="stop-color:#893976"/>
			</linearGradient>
			<path style="opacity:0.25;fill:url(#SVGID_00000031902688348171980930000005756790919894237068_);" d="M2370.2,2119.1
				c12.2,79,36.5,121.5,97.2,176.2c48.6,36.5,12.2,115.4,30.4,176.2c6.1,18.2,24.3,36.5,30.4,54.7c22.6,45.2,1.5,100.5,11.7,148.4
				c16-2.2,23.2-6.6,23.2-6.6s-26.2-276.6-50.8-381.2c-24.6-104.6-22.6-356.9-63.6-428.6c-92.3-36.9-281-2-281-2s-39,34.9-39,178.4
				c0,11.6,0.1,24.4,0.3,38c40.5,35.8,123.2,43.8,174.2,4.1c3.1-2.3,6.4-3.7,9.8-4.4c0.2-0.5,0.3-0.8,0.3-0.8s0.1,0.3,0.2,0.7
				C2336.8,2067.8,2364.9,2098,2370.2,2119.1z"/>
			<g>
				<path class="st21" d="M2520,2775.9c0,0-6,0-5.5,7.7c0.5,7.7-2.7,34.4,27.8,35.6c30.5,1.2,35.2-2.2,36.2-2.2c1,0-8-25.5-8-25.5
					l-9.7-12.5l-26.2-2.7L2520,2775.9z"/>
				<path class="st26" d="M2587.6,2802.6c-0.7-6.4-4.2-16.6-7.9-24.7c-5.4-12.1-1-16.6-6.1-27.7c-1.8-3.8-3.5-7.4-7.3-11
					c-0.9-0.8-9.3-8.6-21.5-8.2c-2.4,0.1-6.1,0.2-10.1,2.4c-4.7,2.5-7.1,6.3-9.1,9.6c-3.2,5.2-2.4,6.8-7.3,21.8
					c-0.4,1.2-1.3,3.8-1.9,7.4c-0.5,2.8-0.7,5.1-0.8,6.6c8,0,38.7,1.2,45.2,6c6.5,4.7,9.7,12.7,9.7,20.7c0,8,4,11.7,8,11.5
					C2582.1,2816.9,2589.1,2810.3,2587.6,2802.6z"/>
			</g>
			<path class="st26" d="M2218.6,2770.2c6.9,0.1,11.9,5.6,15.7,18.7c3.8,13.2,22,24.8,0.8,22c-21.3-2.8-36.7,27.3-44.3,38.5
				c-7.6,11.1-28,21-27.5,10.1c0.5-10.9,9.5-16,12-27.1C2177.8,2821.3,2202.9,2769.9,2218.6,2770.2z"/>
			<path class="st1" d="M2579.2,1873.3c5-14,36.5-106.2-14.4-190.2c-41.7-68.8-113.8-91.2-124.1-94.3
				c-62.6-18.5-93.9,5.3-113.7-16.6c-33.5-37.1,4.4-163.4,77.9-188.7c82.8-28.5,182,81.1,222.3,153.2
				c52.8,94.5,39.8,188.4,36.7,207.8c-7.9,50.3-26.4,88.6-40.1,112.1C2609,1862.2,2594.1,1867.8,2579.2,1873.3z"/>
			<path class="st27" d="M2363.1,1365.7c-73.9-3-130.8-1.8-163,30.4c-34,34,0.4,72.3-7,161.2c-11.3,136-98,169.3-104.5,307.3
				c-2.2,46.5,5.7,84.5,11.8,107.4c19,23.7,50.2,57.1,96.1,85.1c66.9,40.7,105.7,33.6,201.7,59.9c157.1,43,171.1,94.2,249,81.1
				c78.7-13.2,147.8-79.4,139.4-115.8c-5-21.8-36.7-15.6-73.3-48.8c-47.1-42.8-28.9-83.7-64.7-129.7c-51.4-66.1-123.1-25.7-166.9-83
				c-44.3-58-26.7-172.2,10.6-234.4c24.4-40.7,34.9-88.3,55.6-130.9c1.7-3.5,3.7-9.3,2.8-16.6c-3.4-27.8-49.7-42.8-84.7-53.9
				C2412.6,1368,2369.2,1366,2363.1,1365.7z"/>
			
				<linearGradient id="SVGID_00000109740729511862203820000007530340088199125947_" gradientUnits="userSpaceOnUse" x1="1069.0333" y1="1302.4886" x2="1133.1675" y2="1404.4255" gradientTransform="matrix(1 0 0 1 1249.563 0)">
				<stop  offset="3.597120e-03" style="stop-color:#F4D7F5"/>
				<stop  offset="1" style="stop-color:#DD86E0"/>
			</linearGradient>
			<path style="fill:url(#SVGID_00000109740729511862203820000007530340088199125947_);" d="M2300.9,1362.7l14.6-4.5
				c0,0,3.8,19.7,50.7,22.2c26,0,42.8-14.6,42.8-14.6l10,7.3c0,0-21.8,27.3-56.6,26.6C2317.5,1398.8,2300.9,1362.7,2300.9,1362.7z"
				/>
			<g>
				
					<linearGradient id="SVGID_00000113311032869525698880000008815212558314389686_" gradientUnits="userSpaceOnUse" x1="1146.4596" y1="1286.8507" x2="1075.9764" y2="1400.8676" gradientTransform="matrix(1 0 0 1 1249.563 0)">
					<stop  offset="0" style="stop-color:#FFC444"/>
					<stop  offset="0.9964" style="stop-color:#F36F56"/>
				</linearGradient>
				<path style="fill:url(#SVGID_00000113311032869525698880000008815212558314389686_);" d="M2330.5,1302.7
					c2.8-21.7,19.9-35.5,23.7-38.5c15.6-12.4,18.8-13.7,24.2-14.7l7.3-1.1c0,0,0.4,0,0.8,0c4.3,0.3,17.2,5.3,19.5,6.9
					c7.5,5.3,2,42.5-20.7,88.8c-0.9,3.9-1.8,7.8-2.7,11.8c19.8,3.5,24.7,7,24.8,9.9c0.3,6.2-21.3,14-41.4,14.5
					c-25.1,0.6-51.8-10.2-51.3-18.3c0.2-3.3,4.9-7.3,23.2-11.3c2.9-4,5.7-8,8.6-12C2344,1335.6,2328.5,1318.6,2330.5,1302.7z"/>
				
					<linearGradient id="SVGID_00000182522044309952223280000017486970709200271291_" gradientUnits="userSpaceOnUse" x1="554.5406" y1="763.4197" x2="486.3334" y2="873.7549" gradientTransform="matrix(0.9717 -0.2361 0.2361 0.9717 1651.677 660.5243)">
					<stop  offset="0" style="stop-color:#FFC444"/>
					<stop  offset="0.9964" style="stop-color:#F36F56"/>
				</linearGradient>
				<path style="fill:url(#SVGID_00000182522044309952223280000017486970709200271291_);" d="M2361.6,1294.5
					c5.7-3.4,10,3.9,7.4,10.3c-2.7,6.4-11.7,10.4-17.2,6.6C2346.3,1307.6,2353.9,1299.1,2361.6,1294.5z"/>
				<path class="st31" d="M2596.8,1543.2c-40.4,2.3-90.3-121.9-102.5-229.9c-0.8-6.9-21.3-28.7-47-57.9
					c-11.3-12.9-22.5-24.9-40-27.7c-4.4-0.7-19.2-3.1-28.9,6.4c-7.9,7.7-9.8,21.1-7.5,30.8c1.4,5.8,3.2,6.4,2.9,10.2
					c-0.7,10.6-20.1,15.2-19,20.6c0.8,3.8,10.8,2.4,12.6,7.2c1.9,5.3-9.2,9.8-13.9,23c-8.9,6-14.5,20.8-16.5,40.6
					c-2.9,29.2,0.1,52.9,5.6,70.7c26.6,85.9,45.6,147.4,91.7,181.7C2495.4,1664.4,2650,1540.2,2596.8,1543.2z"/>
			</g>
			<path class="st27" d="M1986.7,1128.1c-1.9,17.8-8.3,96.4,45.9,162.8c50.7,62,122.4,74.4,135.8,76.4c64.5,9.8,92.4-18.1,114.9,0.9
				c38.3,32.2,17.9,162.5-51.3,197.6c-78.1,39.6-191.4-55.5-241.1-121.3c-65.2-86.4-65.2-181.2-64.8-200.8
				c1-50.9,14-91.4,24.4-116.6c4.2-1.3,10.7-2.7,18.6-2.4C1976.6,1124.9,1982.7,1126.6,1986.7,1128.1z"/>
			
				<linearGradient id="SVGID_00000029037300652061427370000012596914668835179960_" gradientUnits="userSpaceOnUse" x1="2123.9724" y1="1412.4058" x2="2459.5681" y2="2102.5046">
				<stop  offset="0" style="stop-color:#21B2E7"/>
				<stop  offset="1" style="stop-color:#B6E6F7"/>
			</linearGradient>
			<path style="opacity:0.25;fill:url(#SVGID_00000029037300652061427370000012596914668835179960_);" d="M2649.5,2146.1
				c-18.9-19.4,1.9-58.4-26-87.5c-25.9-26.9-55.2-5.2-96.9-28.4c-53.5-29.7-38.7-84.2-89.8-113.5c-36.7-21-54,1.6-111.1-9.5
				c-57-11-126.4-50.3-160.7-120.5c-14.6-29.8-19.9-59.5-20.7-86c-25.6,45.8-52.2,89.7-55.7,163.8c-2.2,46.5,5.7,84.5,11.8,107.4
				c19,23.7,50.2,57.1,96.1,85.1c66.9,40.7,105.7,33.6,201.7,59.9c157.1,43,171.1,94.2,249,81.1c50.3-8.4,96.6-38.5,121.3-68.6
				C2695.8,2161.7,2663.2,2160.1,2649.5,2146.1z"/>
		</g>
	</g>
	<g>
		
			<linearGradient id="SVGID_00000161632970495272270030000010625170944337842072_" gradientUnits="userSpaceOnUse" x1="2625.7913" y1="544.8616" x2="2940.853" y2="1177.1149">
			<stop  offset="0" style="stop-color:#FBB03B"/>
			<stop  offset="0.9964" style="stop-color:#EB8E51"/>
		</linearGradient>
		<path style="fill:url(#SVGID_00000161632970495272270030000010625170944337842072_);" d="M3048.7,958.2
			c0.3-111.9-112.1-197.5-239.1-191.5c-69.1,3.3-127.3,33.3-162.8,76.2c0,0,0,0,0,0c-0.2,0.3-0.4,0.5-0.6,0.8
			c-0.6,0.7-1.2,1.5-1.8,2.2c-1.1,1.4-2.2,2.7-3.2,4.1c-0.6,0.8-1.2,1.7-1.8,2.5c-1,1.4-2,2.8-2.9,4.2c-0.5,0.8-1.1,1.6-1.6,2.4
			c-1.1,1.6-2.1,3.3-3.1,4.9c-0.4,0.6-0.7,1.2-1.1,1.8c-1.3,2.2-2.6,4.5-3.8,6.8c-0.3,0.6-0.6,1.2-0.9,1.8c-0.9,1.7-1.7,3.5-2.6,5.2
			c-0.4,0.9-0.8,1.7-1.2,2.6c-0.7,1.5-1.4,3.1-2,4.7c-0.4,0.9-0.7,1.8-1.1,2.7c-0.6,1.6-1.2,3.2-1.8,4.9c-0.3,0.9-0.6,1.7-0.9,2.6
			c-0.7,2.1-1.3,4.1-1.9,6.2c-0.1,0.4-0.3,0.9-0.4,1.3c-0.7,2.5-1.3,5-1.9,7.6c-0.2,0.8-0.3,1.5-0.5,2.3c-0.4,1.8-0.7,3.7-1.1,5.5
			c-0.2,0.9-0.3,1.9-0.4,2.8c-0.3,1.7-0.5,3.4-0.7,5.2c-0.1,1-0.2,1.9-0.3,2.9c-0.2,1.8-0.3,3.6-0.4,5.5c-0.1,0.9-0.1,1.7-0.2,2.6
			c-0.1,2.7-0.2,5.4-0.2,8.1c0.2,64.6,40.2,123.8,101.5,158.5c5.7,3.2,11.6,6.3,17.7,9.1c3.1,1.4,6.2,2.8,9.3,4.1
			c22.3,9.2,46.8,15.4,72.8,18l0,0l0,0l0,0c3.6,0.4,7.2,0.6,10.8,0.8c1.2,0.1,2.4,0.1,3.6,0.1c2.4,0.1,4.8,0.2,7.1,0.2
			c1.5,0,2.9,0,4.3,0c2.1,0,4.3,0,6.4-0.1c1.5,0,3.1-0.1,4.6-0.2c2-0.1,4-0.2,6-0.3c1.6-0.1,3.2-0.2,4.8-0.4
			c1.9-0.2,3.9-0.3,5.8-0.6c1.6-0.2,3.2-0.4,4.8-0.6c1.9-0.2,3.8-0.5,5.6-0.8c1.6-0.2,3.2-0.5,4.8-0.8c1.9-0.3,3.7-0.7,5.5-1
			c1.6-0.3,3.2-0.6,4.7-1c0.6-0.1,1.2-0.2,1.8-0.4c0,0,0,0,0,0C2980.5,1112,3048.4,1044.3,3048.7,958.2z"/>
		<g>
			
				<linearGradient id="SVGID_00000044885719011858356180000011804879703729784766_" gradientUnits="userSpaceOnUse" x1="2724.519" y1="797.8577" x2="3029.0479" y2="1362.6686">
				<stop  offset="0" style="stop-color:#FBB03B"/>
				<stop  offset="0.9964" style="stop-color:#EB8E51"/>
			</linearGradient>
			<path style="fill:url(#SVGID_00000044885719011858356180000011804879703729784766_);" d="M3023.2,956.4
				c-0.3,110.6-110.6,189.4-234.9,177.3c-113.2-11-198-94.7-198.4-188c-0.3-93.5,84.3-173.6,198.1-179.1
				C2912.9,760.6,3023.4,845.4,3023.2,956.4z"/>
			<g>
				<path class="st1" d="M2713.7,912.9c-7.6-0.1-13.5,3-17.7,9.3c-4.1,6.3-6.2,15-6.1,26.3c0.1,23.4,8,35.4,23.9,36.1
					c6.8,0.3,15-1.3,24.7-4.7l0,19c-8,3.3-16.9,4.7-26.6,4.2c-13.9-0.7-24.4-5.8-31.6-15.3c-7.2-9.5-10.8-22.8-10.8-40
					c0-10.8,1.7-20.3,5.2-28.4c3.5-8.1,8.6-14.4,15.2-18.7c6.7-4.4,14.6-6.5,23.7-6.5c9.4,0,18.9,2.6,28.5,7.6l-6.7,18.4
					c-3.7-1.9-7.3-3.6-11-5.1C2720.8,913.7,2717.2,913,2713.7,912.9z"/>
				<path class="st1" d="M2827.2,976.3c0,10-3.4,17.8-10.2,23.2c-6.8,5.4-16.1,7.9-28,7.3c-10.8-0.5-20.3-3.1-28.6-7.8l0-21.3
					c6.8,3.5,12.5,6,17.2,7.5c4.7,1.5,9.1,2.4,13,2.5c4.8,0.2,8.4-0.6,11-2.5c2.6-1.9,3.8-4.7,3.8-8.6c0-2.2-0.6-4.1-1.7-5.8
					c-1.1-1.7-2.8-3.4-5-5c-2.2-1.6-6.6-4.2-13.3-7.8c-6.2-3.3-10.8-6.4-13.9-9.4c-3.1-2.9-5.5-6.3-7.4-10.2
					c-1.8-3.8-2.7-8.3-2.8-13.4c0-9.6,3-17.1,9-22.5c6-5.5,14.4-8.2,25.3-8.2c5.3,0,10.5,0.7,15.4,2.1c4.9,1.4,10.1,3.3,15.5,5.8
					l-7.2,18.2c-5.6-2.5-10.2-4.2-13.8-5.2c-3.6-1-7.1-1.5-10.6-1.5c-4.1,0-7.3,0.9-9.4,3c-2.2,2-3.3,4.7-3.3,8c0,2,0.4,3.8,1.3,5.4
					c0.9,1.5,2.3,3,4.2,4.5c1.9,1.5,6.5,4.1,13.8,8c9.7,5.1,16.4,10.2,20,15.3C2825.4,962.9,2827.2,969,2827.2,976.3z"/>
				<path class="st1" d="M2918.8,979.4c0,10.4-3.7,18.4-11,24c-7.2,5.6-17.3,8.1-30,7.5c-11.6-0.5-21.8-3.3-30.6-8.2v-22
					c7.2,3.6,13.4,6.2,18.4,7.8c5.1,1.6,9.7,2.5,14,2.6c5.1,0.2,9-0.7,11.8-2.6c2.7-1.9,4.1-4.9,4.1-8.9c0-2.2-0.6-4.2-1.8-6
					c-1.2-1.8-3-3.5-5.3-5.2c-2.3-1.7-7.1-4.4-14.2-8.1c-6.6-3.4-11.6-6.7-14.9-9.7c-3.3-3-5.9-6.6-7.9-10.5c-2-4-2.9-8.6-2.9-13.8
					c0-9.9,3.2-17.7,9.7-23.3c6.5-5.7,15.5-8.5,27.1-8.5c5.7,0,11.2,0.7,16.5,2.2c5.3,1.4,10.8,3.4,16.6,6l-7.7,18.9
					c-6-2.6-10.9-4.4-14.8-5.4c-3.9-1-7.7-1.6-11.4-1.6c-4.4,0-7.8,1-10.1,3.1c-2.3,2.1-3.5,4.8-3.5,8.2c0,2.1,0.5,4,1.4,5.5
					c0.9,1.6,2.4,3.1,4.5,4.6c2.1,1.5,7,4.3,14.8,8.3c10.4,5.3,17.5,10.6,21.4,15.9C2916.9,965.5,2918.8,971.9,2918.8,979.4z"/>
			</g>
			<g class="st35">
				
					<linearGradient id="SVGID_00000143618326215709433190000006739719615660823227_" gradientUnits="userSpaceOnUse" x1="2635.6951" y1="837.0078" x2="2928.5684" y2="1424.7339">
					<stop  offset="0" style="stop-color:#FBB03B"/>
					<stop  offset="0.9964" style="stop-color:#EB8E51"/>
				</linearGradient>
				<path style="fill:url(#SVGID_00000143618326215709433190000006739719615660823227_);" d="M2841.4,1091.3
					c-26.7-56.7,0.3-106.8-35.8-143.4c-35.7-36.2-80.5-4.3-127-33.1c-17.5-10.8-36.8-31.2-51-72.6c-24,29.2-37.9,64.9-37.7,103.5
					c0.3,93.3,85.2,177,198.4,188c27.4,2.7,54.3,0.9,79.4-4.8C2855.2,1115.9,2847,1103.1,2841.4,1091.3z"/>
			</g>
		</g>
	</g>
	<g>
		
			<linearGradient id="SVGID_00000048497723060229697640000006513778189222538897_" gradientUnits="userSpaceOnUse" x1="2853.866" y1="42.4055" x2="3196.9307" y2="730.8538">
			<stop  offset="0" style="stop-color:#FBB03B"/>
			<stop  offset="0.9964" style="stop-color:#EB8E51"/>
		</linearGradient>
		<path style="fill:url(#SVGID_00000048497723060229697640000006513778189222538897_);" d="M3319.2,506.1
			c0-113.8-113.9-208-249.2-210.4c-76.8-1.3-143.6,27.4-185.2,72.6c0,0,0,0,0,0c-0.3,0.3-0.5,0.6-0.8,0.9c-0.7,0.8-1.4,1.6-2.1,2.4
			c-1.3,1.5-2.6,2.9-3.8,4.4c-0.7,0.9-1.4,1.8-2.2,2.7c-1.2,1.5-2.3,3-3.5,4.5c-0.6,0.9-1.3,1.7-1.9,2.6c-1.3,1.8-2.5,3.5-3.7,5.3
			c-0.4,0.7-0.9,1.3-1.3,1.9c-1.6,2.4-3.1,4.9-4.5,7.4c-0.4,0.7-0.7,1.3-1.1,2c-1.1,1.9-2.1,3.8-3.1,5.7c-0.5,0.9-0.9,1.9-1.4,2.8
			c-0.8,1.7-1.6,3.4-2.4,5.1c-0.4,1-0.9,2-1.3,3c-0.8,1.8-1.5,3.6-2.1,5.4c-0.4,0.9-0.7,1.9-1.1,2.8c-0.8,2.3-1.6,4.6-2.3,6.9
			c-0.1,0.5-0.3,1-0.5,1.4c-0.8,2.8-1.6,5.6-2.3,8.4c-0.2,0.8-0.4,1.7-0.6,2.5c-0.5,2-0.9,4.1-1.3,6.1c-0.2,1-0.4,2.1-0.5,3.2
			c-0.3,1.9-0.6,3.8-0.9,5.7c-0.1,1.1-0.3,2.2-0.4,3.2c-0.2,2-0.4,4.1-0.5,6.1c-0.1,1-0.2,1.9-0.2,2.9c-0.2,3-0.3,6-0.3,9.1
			c0,72.6,47.5,139.1,118.9,177.1c6.6,3.5,13.3,6.8,20.3,9.8c3.5,1.5,7,2.9,10.6,4.3c25.2,9.7,52.6,16,81.4,18.3l0,0l0,0l0,0
			c4,0.3,7.9,0.5,11.9,0.7c1.3,0.1,2.6,0.1,4,0.1c2.6,0.1,5.2,0.1,7.8,0.1c1.6,0,3.1-0.1,4.7-0.1c2.3,0,4.6-0.1,6.9-0.2
			c1.7-0.1,3.3-0.2,5-0.3c2.2-0.1,4.3-0.3,6.5-0.4c1.7-0.1,3.4-0.3,5.1-0.5c2.1-0.2,4.2-0.4,6.2-0.7c1.7-0.2,3.4-0.4,5.2-0.7
			c2-0.3,4-0.6,6-0.9c1.7-0.3,3.4-0.6,5.1-0.9c2-0.4,3.9-0.8,5.9-1.2c1.7-0.4,3.4-0.7,5-1.1c0.6-0.1,1.2-0.3,1.9-0.4c0,0,0,0,0,0
			C3251,663.8,3319.2,593.8,3319.2,506.1z"/>
		<g>
			
				<linearGradient id="SVGID_00000026852906399709369920000011664513561023511228_" gradientUnits="userSpaceOnUse" x1="2957.8564" y1="326.4361" x2="3291.0823" y2="944.4711">
				<stop  offset="0" style="stop-color:#FBB03B"/>
				<stop  offset="0.9964" style="stop-color:#EB8E51"/>
			</linearGradient>
			<path style="fill:url(#SVGID_00000026852906399709369920000011664513561023511228_);" d="M3285.7,505.1
				c0,113.2-112.8,196.1-246.7,185.4c-128.6-10.2-229-103.4-229-208.5s100.5-188.6,229-186.3
				C3172.9,298.1,3285.7,391.9,3285.7,505.1z"/>
			<g>
				<path class="st1" d="M2940,531.5l-17.2-0.9v-37.2l-31.9-1.6v37l-17-0.9v-85.4l17,0.7v33.6l31.9,1.5v-33.7l17.2,0.7V531.5z"/>
				<path class="st1" d="M2998.2,534.7l-17.5-1v-71.5l-22.3-1v-15.3l62.5,2.6V464l-22.6-1V534.7z"/>
				<path class="st1" d="M3075.3,539l-20.4-70.1l-0.5,0c0.7,14.1,1.1,23.4,1.1,28.1v40.9l-16-0.9v-87.7l24.3,1l20.1,68.4l0.3,0
					l21.5-66.6l24.9,1V542l-17-0.9v-42c0-2,0-4.3,0.1-6.9c0.1-2.6,0.3-9.5,0.8-20.6l-0.5,0l-22.1,68.3L3075.3,539z"/>
				<path class="st1" d="M3158.6,543.6v-89.3l18.5,0.8v73.9l35.8,1.9v15.8L3158.6,543.6z"/>
			</g>
			<g class="st35">
				
					<linearGradient id="SVGID_00000176748062720731725750000007301329689178441100_" gradientUnits="userSpaceOnUse" x1="2864.3245" y1="362.2863" x2="3189.1421" y2="1014.1172">
					<stop  offset="0" style="stop-color:#FBB03B"/>
					<stop  offset="0.9964" style="stop-color:#EB8E51"/>
				</linearGradient>
				<path style="fill:url(#SVGID_00000176748062720731725750000007301329689178441100_);" d="M3097.2,644.4
					c-29-60.6,0.3-113.8-38.9-153.7c-39.4-40-89.8-7-143.2-40.1c-20.4-12.6-42.9-36-59.6-82.7c-28.7,31.3-45.6,70.7-45.6,114.1
					c0,105.1,100.5,198.3,229,208.5c30.2,2.4,59.4,0,86.4-6.4C3112,670.5,3103.2,657,3097.2,644.4z"/>
			</g>
		</g>
	</g>
	<g>
		
			<linearGradient id="SVGID_00000004532732471199129950000000174961862388111759_" gradientUnits="userSpaceOnUse" x1="2325.2051" y1="-361.9611" x2="2627.1899" y2="244.05">
			<stop  offset="0" style="stop-color:#FBB03B"/>
			<stop  offset="0.9964" style="stop-color:#EB8E51"/>
		</linearGradient>
		<path style="fill:url(#SVGID_00000004532732471199129950000000174961862388111759_);" d="M2801.4,182.9
			c0-104.7-96.6-186.5-211.7-182.7c-65.5,2.1-122.5,31.7-158.1,75.3c0,0,0,0,0,0c-0.2,0.3-0.4,0.6-0.6,0.8c-0.6,0.8-1.2,1.5-1.8,2.3
			c-1.1,1.4-2.2,2.8-3.2,4.3c-0.6,0.8-1.2,1.7-1.8,2.6c-1,1.4-2,2.9-3,4.3c-0.6,0.8-1.1,1.7-1.7,2.5c-1.1,1.7-2.1,3.4-3.2,5.1
			c-0.4,0.6-0.8,1.2-1.1,1.9c-1.4,2.3-2.6,4.7-3.9,7.1c-0.3,0.6-0.6,1.3-1,1.9c-0.9,1.8-1.8,3.6-2.6,5.4c-0.4,0.9-0.8,1.8-1.2,2.7
			c-0.7,1.6-1.4,3.2-2.1,4.9c-0.4,0.9-0.8,1.9-1.1,2.9c-0.6,1.7-1.3,3.4-1.8,5.1c-0.3,0.9-0.6,1.8-0.9,2.7c-0.7,2.1-1.4,4.3-2,6.4
			c-0.1,0.5-0.3,0.9-0.4,1.3c-0.7,2.6-1.4,5.2-2,7.9c-0.2,0.8-0.3,1.6-0.5,2.4c-0.4,1.9-0.8,3.8-1.1,5.7c-0.2,1-0.3,2-0.5,2.9
			c-0.3,1.8-0.5,3.6-0.7,5.4c-0.1,1-0.2,2-0.3,3c-0.2,1.9-0.3,3.8-0.5,5.7c-0.1,0.9-0.1,1.8-0.2,2.7c-0.1,2.8-0.2,5.6-0.2,8.4
			c0,67.2,40.7,126.5,101.7,158.2c5.6,2.9,11.4,5.6,17.3,8c3,1.2,6,2.4,9.1,3.5c21.5,7.7,44.9,12.3,69.4,13l0,0l0,0c0,0,0,0,0,0
			c3.4,0.1,6.8,0.1,10.1,0.1c1.1,0,2.3-0.1,3.4-0.1c2.2-0.1,4.4-0.1,6.6-0.3c1.3-0.1,2.7-0.2,4-0.3c2-0.1,3.9-0.3,5.9-0.5
			c1.4-0.1,2.8-0.3,4.3-0.5c1.8-0.2,3.7-0.5,5.5-0.7c1.5-0.2,2.9-0.5,4.4-0.7c1.8-0.3,3.5-0.6,5.3-0.9c1.5-0.3,2.9-0.6,4.4-0.9
			c1.7-0.4,3.4-0.7,5.1-1.2c1.5-0.3,2.9-0.7,4.4-1.1c1.7-0.4,3.4-0.9,5-1.4c1.4-0.4,2.9-0.8,4.3-1.2c0.5-0.2,1.1-0.3,1.6-0.5
			c0,0,0,0,0,0C2743.6,331.2,2801.4,263.6,2801.4,182.9z"/>
		<g>
			
				<linearGradient id="SVGID_00000156557028778812525080000014270784678683942570_" gradientUnits="userSpaceOnUse" x1="2502.7932" y1="36.086" x2="2796.113" y2="580.1074">
				<stop  offset="0" style="stop-color:#FBB03B"/>
				<stop  offset="0.9964" style="stop-color:#EB8E51"/>
			</linearGradient>
			<path style="fill:url(#SVGID_00000156557028778812525080000014270784678683942570_);" d="M2785.6,182.9
				c0,104.5-96.1,186.3-210.6,183c-110.2-3.2-196.6-84.8-196.6-182.3S2464.8,4.2,2575,0.6C2689.5-3.1,2785.6,78.4,2785.6,182.9z"/>
			<g>
				<path class="st1" d="M2523.3,233.5l-81.7-41.6v-13.4l81.7-47.3V154l-56.5,30.2l56.5,26.6V233.5z"/>
				<path class="st1" d="M2610.3,112.7l-46.5,140.5l-23.3-0.2l46.1-139.9L2610.3,112.7z"/>
				<path class="st1" d="M2627.5,211.1l59.7-27.3l-59.7-30.6v-23.2l87.1,47.7v14l-87.1,42.4V211.1z"/>
			</g>
			<g class="st35">
				
					<linearGradient id="SVGID_00000124880723962885434370000015377252293178257589_" gradientUnits="userSpaceOnUse" x1="2422.241" y1="72.2399" x2="2707.1931" y2="644.0701">
					<stop  offset="0" style="stop-color:#FBB03B"/>
					<stop  offset="0.9964" style="stop-color:#EB8E51"/>
				</linearGradient>
				<path style="fill:url(#SVGID_00000124880723962885434370000015377252293178257589_);" d="M2624.8,320.4
					c-24.8-54.7,0.3-105.2-33.3-140.3c-33.7-35.2-76.9-2.3-122.7-30.5c-17.5-10.8-36.9-31.4-51.2-74
					c-24.7,30.3-39.2,67.6-39.2,107.9c0,97.5,86.4,179.1,196.6,182.3c25.8,0.8,50.8-2.8,73.9-10.1
					C2637.5,343.8,2629.9,331.7,2624.8,320.4z"/>
			</g>
		</g>
	</g>
</g>
<path class="st31" d="M2592.5,1372.3"/>
<g>
</g>
<g>
</g>
<g>
</g>
<g>
</g>
<g>
</g>
<g>
</g>
<g>
</g>
<g>
</g>
<g>
</g>
<g>
</g>
<g>
</g>
<g>
</g>
<g>
</g>
<g>
</g>
<g>
</g>
</svg>
